<svg xmlns="http://www.w3.org/2000/svg" width="150" height="36" fill="none" viewBox="0 0 150 36">
    <path fill="#006AFF" fill-rule="evenodd" d="M113.653 27.506l-.36-1.519.998-.2.598-.2.676-.259.399-.2 1.321-1.284.761 2.465-.043.076.043-.011.873 3.314c.112.423-.345.773-.72.552l-1.788-1.05-.989 1.742c-.217.382-.784.312-.896-.111l-.853-3.238-.02-.012.016-.005-.016-.06zm-2.78 3.427l-1.013-1.783-1.747 1.026c-.375.22-.832-.13-.72-.552l.867-3.293-.012-.022.455-1.52.744.447.852.352.599.2 1.276.199h.919l-.45 1.515.016.005-.021.012-.87 3.302c-.111.423-.679.493-.895.111z" clip-rule="evenodd"/>
    <g filter="url(#filter0_d)">
        <path fill="#006AFF" d="M112.927 12.876c-3.847 0-6.985 3.13-6.995 6.977-.01 3.846 3.112 6.976 6.959 6.976 3.847 0 6.985-3.13 6.995-6.976.009-3.847-3.112-6.977-6.959-6.977z"/>
    </g>
    <path fill="#fff" d="M112.925 15.977c-2.137 0-3.881 1.738-3.886 3.875-.006 2.138 1.729 3.876 3.866 3.876s3.88-1.738 3.886-3.876c.005-2.137-1.729-3.875-3.866-3.875z"/>
    <path fill="#031B4E" fill-rule="evenodd" d="M135.683 20.002l3.642 3.553c.393.385.594.853.593 1.385.001.532-.2 1.001-.593 1.386l-.002.002-.002.001c-.391.347-.858.537-1.385.566l-.106.002c-.494.001-.941-.194-1.323-.571l-4.075-3.98v2.58c.001.507-.201.965-.592 1.357-.391.395-.862.599-1.396.598-.513 0-.983-.192-1.392-.567-.412-.375-.624-.846-.623-1.388V10.954c-.001-.505.201-.964.592-1.356.39-.395.873-.6 1.423-.598.55 0 1.027.192 1.41.57.384.375.58.845.578 1.384v6.702l4.075-4.006c.381-.377.841-.57 1.359-.57h.038c.53.01 1.008.202 1.418.566l.001.002.002.002c.393.385.594.853.593 1.386.001.531-.2 1-.593 1.385l-3.642 3.58zm-9.716 6.905l-.008.001h-.402c-.671 0-1.306-.136-1.901-.41-.592-.272-1.114-.635-1.563-1.086-.45-.452-.804-.98-1.062-1.58-.259-.603-.389-1.235-.388-1.894V10.893l.001-.006c.058-.482.267-.903.62-1.249.355-.35.806-.536 1.334-.555h.004c.531-.001.99.187 1.354.556.364.367.567.827.606 1.364v10.935c.001.348.112.631.338.873.227.238.502.354.854.355.511-.001.968.176 1.35.524.385.348.591.794.61 1.316v.003c0 .467-.166.886-.49 1.243-.325.36-.75.58-1.257.655zM105.821 23.58c.002.027.002.054.002.08 0 .215-.035.428-.105.634-.08.236-.211.444-.39.62l-.002.002c-.665.635-1.398 1.122-2.197 1.459-.801.337-1.66.506-2.573.506-.988 0-1.92-.164-2.794-.491-.875-.327-1.647-.795-2.313-1.403-.667-.609-1.196-1.34-1.586-2.19-.39-.854-.595-1.803-.614-2.849v-9.104c-.001-.524.207-.973.612-1.32.4-.348.875-.525 1.404-.524.55-.001 1.023.192 1.396.57.373.377.581.85.62 1.405v2.009h5.301c.567 0 1.043.197 1.398.587.354.385.534.847.533 1.367.001.507-.201.965-.592 1.357-.389.394-.842.599-1.339.598h-5.3v3.053c0 .412.076.8.23 1.165.155.368.369.694.642.98.272.285.593.507.965.668.371.16.774.24 1.212.24.478 0 .883-.063 1.216-.186.333-.124.625-.31.878-.558l.003-.003.003-.003c.409-.345.871-.527 1.373-.536h.036c.493 0 .955.193 1.371.566.197.175.348.376.447.601.099.224.154.458.163.7zm-15.287 1.307c-.628.618-1.361 1.105-2.198 1.46-.839.356-1.725.534-2.658.534-.914 0-1.793-.183-2.63-.548-.837-.364-1.574-.856-2.212-1.473-.637-.618-1.146-1.338-1.526-2.16-.382-.825-.572-1.698-.572-2.615v-9.269c0-.238.06-.472.18-.697.118-.221.265-.414.443-.58.177-.164.38-.295.606-.392.192-.082.39-.124.591-.123.037 0 .074 0 .111.004.037-.003.074-.004.11-.004.22 0 .433.046.636.137.235.106.447.246.633.42.189.176.334.387.433.63.098.242.148.491.148.743v3.025c.62-.297 1.26-.497 1.923-.593.356-.05.712-.076 1.066-.076.355 0 .708.025 1.06.076.704.103 1.39.31 2.055.618.666.309 1.285.726 1.855 1.248l.002.002.002.002c.664.671 1.165 1.397 1.498 2.175.334.78.5 1.665.5 2.654 0 .935-.185 1.817-.557 2.641-.37.823-.87 1.544-1.499 2.16zm-2.051-5.965c-.164-.367-.386-.683-.667-.95-.282-.27-.609-.484-.983-.645-.372-.16-.757-.24-1.155-.24-.417 0-.804.084-1.166.253-.365.17-.688.394-.97.671-.282.278-.505.599-.668.966-.164.367-.245.735-.245 1.108 0 .411.081.797.245 1.162.163.368.385.683.666.951.283.269.605.483.97.645.362.16.75.24 1.168.24.398 0 .783-.08 1.155-.24.374-.162.7-.377.983-.645.281-.268.503-.583.667-.95.163-.366.245-.752.245-1.163 0-.412-.082-.798-.245-1.163zm-11.84 4.506c.109 0 .22.009.329.034.218.052.413.183.589.341.365.333.563.834.564 1.315 0 .53-.221.991-.578 1.315-.356.323-.846.512-1.385.512h-3.804c-1.577 0-3.004-.007-4.446-.85-1.437-.84-2.54-2.177-3.2-3.667-.37-.834-.555-1.699-.555-2.59 0-.874.186-1.72.556-2.537.369-.815.866-1.534 1.492-2.155.625-.622 1.355-1.116 2.188-1.488.835-.37 1.72-.556 2.648-.555.911 0 1.786.19 2.621.561.833.371 1.567.874 2.201 1.495.635.621 1.142 1.35 1.52 2.155.38.81.57 1.708.57 2.599 0 .038 0 .076-.003.113-.032.555-.316 1.071-.75 1.417-.196.159-.407.25-.623.306-.217.056-.44.078-.668.099-.44.041-.882.062-1.324.062h-.143c-.568-.006-1.132-.012-1.699-.012h-.384c-.996.006-1.99.015-2.987.015h-.85c.016.04.035.085.062.14.08.161.215.378.432.595.435.434 1.196.875 2.541.876h3.54c.235 0 .486-.054.75-.055h.077c.231.001.473-.04.719-.04zm-5.602-6.521c-.521 0-.984.149-1.393.371-.346.188-.659.482-.94.812h4.664c-.28-.324-.596-.603-.95-.791-.422-.224-.881-.392-1.38-.392zm-9.076 8.563c-.47.433-1.015.776-1.635 1.03-.622.254-1.27.381-1.939.381-1.193 0-2.247-.354-3.15-1.054-.443.35-.925.615-1.447.786-.545.178-1.105.268-1.678.268-.708 0-1.374-.132-1.997-.396-.62-.262-1.16-.615-1.62-1.058-.46-.442-.824-.96-1.092-1.553-.268-.593-.403-1.221-.403-1.88v-6.806c-.002-.035-.004-.07-.004-.105 0-.216.046-.428.14-.629.108-.232.252-.436.43-.61.177-.176.386-.312.623-.41.238-.097.496-.145.771-.145.51-.002.959.172 1.323.511.363.337.57.747.608 1.213v6.866c.02.347.143.622.377.844.237.223.51.33.844.332.293 0 .555-.103.804-.32.242-.214.37-.482.388-.829V15.05c-.001-.49.203-.916.598-1.253.39-.336.84-.509 1.334-.508.53-.002.997.186 1.38.554.383.366.58.822.579 1.345v6.723c.002.384.124.655.37.848.256.2.526.295.822.296.353-.001.637-.11.872-.331.234-.223.347-.487.348-.813v-6.723c0-.506.196-.956.579-1.33.381-.377.839-.57 1.353-.57.511 0 .971.178 1.363.524.392.346.597.766.596 1.238v6.944c0 .677-.14 1.32-.417 1.923-.277.601-.65 1.12-1.12 1.553z" clip-rule="evenodd"/>
    
  
   
    

    <defs>
        <filter id="filter0_d" width="17.054" height="17.054" x="104.382" y="12.876" color-interpolation-filters="sRGB" filterUnits="userSpaceOnUse">
            <feFlood flood-opacity="0" result="BackgroundImageFix"/>
            <feColorMatrix in="SourceAlpha" values="0 0 0 0 0 0 0 0 0 0 0 0 0 0 0 0 0 0 127 0"/>
            <feOffset dy="1.55"/>
            <feGaussianBlur stdDeviation=".775"/>
            <feColorMatrix values="0 0 0 0 0 0 0 0 0 0 0 0 0 0 0 0 0 0 0.6 0"/>
            <feBlend in2="BackgroundImageFix" result="effect1_dropShadow"/>
            <feBlend in="SourceGraphic" in2="effect1_dropShadow" result="shape"/>
        </filter>
    </defs>
</svg>